<svg width="57" height="52" viewBox="0 0 57 52" fill="none" xmlns="http://www.w3.org/2000/svg">
<path d="M21.0463 6.50486L21.3614 6.09523L20.9416 5.79384L15.0916 1.59384L14.7069 1.31764L14.4102 1.6868C9.88572 7.31733 6.40985 13.0069 3.98918 18.756L3.98913 18.756L3.98633 18.7629C1.66821 24.5078 0.5 29.8718 0.5 34.85C0.5 39.5355 1.67276 43.4493 4.0532 46.5542L4.05886 46.5616L4.0648 46.5688C6.57398 49.6007 10.0748 51.1 14.5 51.1C17.9161 51.1 20.7043 50.008 22.8121 47.7948C25.0056 45.4967 26.1 42.671 26.1 39.35C26.1 35.9487 25.0656 33.3354 22.9182 31.6143C20.8192 29.8324 18.2526 28.95 15.25 28.95C14.2806 28.95 13.3935 29.0446 12.5926 29.2392C12.6043 25.6013 13.4876 21.637 15.2621 17.3409L15.2636 17.3374C17.1547 12.6592 19.0847 9.055 21.0463 6.50486ZM51.0463 6.50486L51.3614 6.09523L50.9416 5.79384L45.0916 1.59384L44.7069 1.31764L44.4102 1.6868C39.8857 7.31733 36.4099 13.0069 33.9892 18.756L33.9891 18.756L33.9863 18.7629C31.6682 24.5078 30.5 29.8719 30.5 34.85C30.5 39.5355 31.6728 43.4493 34.0532 46.5542L34.0589 46.5616L34.0648 46.5688C36.574 49.6007 40.0748 51.1 44.5 51.1C47.9159 51.1 50.704 50.0081 52.8117 47.7952C55.0054 45.497 56.1 42.6712 56.1 39.35C56.1 35.9488 55.0656 33.3354 52.9182 31.6143C50.8192 29.8324 48.2527 28.95 45.25 28.95C44.2806 28.95 43.3935 29.0446 42.5926 29.2392C42.6043 25.6013 43.4876 21.637 45.2621 17.3409L45.2636 17.3374C47.1547 12.6592 49.0847 9.055 51.0463 6.50486Z" fill="white" stroke="#7221B3"/>
</svg>
