<svg width="15" height="15" viewBox="0 0 15 15" fill="none" xmlns="http://www.w3.org/2000/svg">
<path d="M13.0461 8.28348C12.8955 8.28348 12.7449 8.20818 12.519 8.20818C12.2178 8.13287 11.8413 8.05757 11.5401 7.90696C10.787 7.68105 10.034 7.98226 9.65745 8.66L9.50684 9.03653C8.00076 8.20818 6.79589 7.00331 5.96754 5.49722L6.34406 5.27131C7.0218 4.97009 7.39832 4.14174 7.0971 3.3887C6.94649 3.08748 6.87119 2.71096 6.79589 2.40974C6.79589 2.25913 6.72058 2.10852 6.72058 1.88261C6.56997 0.828348 5.59102 0 4.46145 0H2.20232C1.52458 0 0.922144 0.301218 0.545622 0.753044C0.0937956 1.28017 -0.0568132 1.95791 0.0184912 2.63565C0.395013 5.79844 1.8258 8.66 4.08493 10.9191C6.34406 13.1783 9.28093 14.6091 12.3684 14.9856C13.0461 15.0609 13.6486 14.835 14.1757 14.4584C14.6275 14.0066 14.9288 13.4042 14.9288 12.8017V10.5426C14.9288 9.33774 14.1757 8.43409 13.0461 8.28348Z" fill="#BC7EEE"/>
</svg>
