<svg width="18" height="18" viewBox="0 0 18 18" fill="none" xmlns="http://www.w3.org/2000/svg">
<path d="M9.00408 4.38503C6.44958 4.38503 4.3891 6.4455 4.3891 9C4.3891 11.5545 6.44958 13.615 9.00408 13.615C11.5586 13.615 13.6191 11.5545 13.6191 9C13.6191 6.4455 11.5586 4.38503 9.00408 4.38503ZM9.00408 12.0003C7.35329 12.0003 6.00374 10.6548 6.00374 9C6.00374 7.3452 7.34927 5.99967 9.00408 5.99967C10.6589 5.99967 12.0044 7.3452 12.0044 9C12.0044 10.6548 10.6549 12.0003 9.00408 12.0003ZM14.8843 4.19625C14.8843 4.79471 14.4023 5.27268 13.8078 5.27268C13.2094 5.27268 12.7314 4.79069 12.7314 4.19625C12.7314 3.60181 13.2134 3.11983 13.8078 3.11983C14.4023 3.11983 14.8843 3.60181 14.8843 4.19625ZM17.9408 5.28874C17.8725 3.84681 17.5432 2.56956 16.4868 1.51724C15.4345 0.464911 14.1573 0.135557 12.7153 0.0632601C11.2292 -0.0210867 6.77491 -0.0210867 5.2888 0.0632601C3.85089 0.131541 2.57364 0.460895 1.5173 1.51322C0.460956 2.56555 0.135618 3.8428 0.0633211 5.28473C-0.0210257 6.77084 -0.0210257 11.2251 0.0633211 12.7113C0.131602 14.1532 0.460956 15.4304 1.5173 16.4828C2.57364 17.5351 3.84688 17.8644 5.2888 17.9367C6.77491 18.0211 11.2292 18.0211 12.7153 17.9367C14.1573 17.8685 15.4345 17.5391 16.4868 16.4828C17.5392 15.4304 17.8685 14.1532 17.9408 12.7113C18.0252 11.2251 18.0252 6.77485 17.9408 5.28874ZM16.0209 14.3058C15.7076 15.093 15.1011 15.6995 14.3099 16.0168C13.125 16.4868 10.3135 16.3783 9.00408 16.3783C7.69469 16.3783 4.87912 16.4828 3.69826 16.0168C2.91103 15.7036 2.30454 15.0971 1.98723 14.3058C1.5173 13.1209 1.62574 10.3094 1.62574 9C1.62574 7.69062 1.52132 4.87504 1.98723 3.69419C2.30052 2.90695 2.90701 2.30046 3.69826 1.98315C4.88314 1.51322 7.69469 1.62167 9.00408 1.62167C10.3135 1.62167 13.129 1.51724 14.3099 1.98315C15.0971 2.29644 15.7036 2.90293 16.0209 3.69419C16.4909 4.87906 16.3824 7.69062 16.3824 9C16.3824 10.3094 16.4909 13.125 16.0209 14.3058Z" fill="#BC7EEE"/>
</svg>
