<svg width="436" height="60" viewBox="0 0 436 60" fill="none" xmlns="http://www.w3.org/2000/svg">
<path d="M91.3941 51L92.1441 10.5H97.6941L104.844 43.35L112.044 10.5H117.544L118.294 51H113.744L113.294 21.6L106.444 51H103.244L96.4441 21.6L95.9941 51H91.3941ZM132.002 51.4C129.869 51.4 128.185 50.9667 126.952 50.1C125.719 49.2333 124.835 48 124.302 46.4C123.802 44.8 123.552 42.9167 123.552 40.75V32.35C123.552 30.1833 123.802 28.3 124.302 26.7C124.835 25.1 125.719 23.8667 126.952 23C128.185 22.1333 129.869 21.7 132.002 21.7C134.135 21.7 135.802 22.1333 137.002 23C138.235 23.8667 139.102 25.1 139.602 26.7C140.135 28.3 140.402 30.1833 140.402 32.35V40.75C140.402 42.9167 140.135 44.8 139.602 46.4C139.102 48 138.235 49.2333 137.002 50.1C135.802 50.9667 134.135 51.4 132.002 51.4ZM132.002 47.45C133.035 47.45 133.752 47.15 134.152 46.55C134.585 45.95 134.835 45.1667 134.902 44.2C135.002 43.2 135.052 42.1667 135.052 41.1V32.05C135.052 30.95 135.002 29.9167 134.902 28.95C134.835 27.9833 134.585 27.2 134.152 26.6C133.752 25.9667 133.035 25.65 132.002 25.65C130.969 25.65 130.235 25.9667 129.802 26.6C129.369 27.2 129.102 27.9833 129.002 28.95C128.935 29.9167 128.902 30.95 128.902 32.05V41.1C128.902 42.1667 128.935 43.2 129.002 44.2C129.102 45.1667 129.369 45.95 129.802 46.55C130.235 47.15 130.969 47.45 132.002 47.45ZM153.192 51.4C150.825 51.4 149.025 50.9333 147.792 50C146.592 49.0333 145.775 47.6833 145.342 45.95C144.942 44.2167 144.742 42.2 144.742 39.9V33.25C144.742 30.8167 144.959 28.75 145.392 27.05C145.825 25.3167 146.642 24 147.842 23.1C149.075 22.1667 150.859 21.7 153.192 21.7C155.292 21.7 156.909 22.05 158.042 22.75C159.209 23.4167 160.009 24.4333 160.442 25.8C160.875 27.1333 161.092 28.8 161.092 30.8V32.5H156.242V30.75C156.242 29.4833 156.159 28.4833 155.992 27.75C155.825 27.0167 155.525 26.4833 155.092 26.15C154.659 25.8167 154.042 25.65 153.242 25.65C152.375 25.65 151.709 25.85 151.242 26.25C150.775 26.65 150.459 27.3333 150.292 28.3C150.159 29.2333 150.092 30.5167 150.092 32.15V41.25C150.092 43.7167 150.325 45.3667 150.792 46.2C151.259 47.0333 152.092 47.45 153.292 47.45C154.192 47.45 154.842 47.25 155.242 46.85C155.675 46.4167 155.942 45.8167 156.042 45.05C156.175 44.2833 156.242 43.4167 156.242 42.45V40.1H161.092V42.1C161.092 44.0333 160.859 45.7 160.392 47.1C159.959 48.5 159.159 49.5667 157.992 50.3C156.859 51.0333 155.259 51.4 153.192 51.4ZM165.999 51V10.5H171.349V25.1C172.315 24.1667 173.399 23.3667 174.599 22.7C175.799 22.0333 177.132 21.7 178.599 21.7C179.732 21.7 180.599 22 181.199 22.6C181.832 23.2 182.265 23.95 182.499 24.85C182.765 25.75 182.899 26.6667 182.899 27.6V51H177.549V29.15C177.549 28.1167 177.399 27.3167 177.099 26.75C176.799 26.1833 176.182 25.9 175.249 25.9C174.615 25.9 173.949 26.0833 173.249 26.45C172.582 26.8167 171.949 27.2667 171.349 27.8V51H165.999ZM192.264 51.4C191.131 51.4 190.248 51.1 189.614 50.5C188.981 49.9 188.531 49.15 188.264 48.25C188.031 47.35 187.914 46.4333 187.914 45.5V22.1H193.264V43.9C193.264 44.9333 193.414 45.75 193.714 46.35C194.014 46.9167 194.631 47.2 195.564 47.2C196.164 47.2 196.781 47.0333 197.414 46.7C198.081 46.3333 198.714 45.9 199.314 45.4V22.1H204.664V51H199.314V48.15C198.381 49.05 197.314 49.8167 196.114 50.45C194.948 51.0833 193.664 51.4 192.264 51.4ZM217.836 51.4C216.336 51.4 215.119 51.1167 214.186 50.55C213.286 49.9833 212.619 49.1833 212.186 48.15C211.786 47.1167 211.586 45.9 211.586 44.5V25.65H208.536V22.1H211.586V13.65H216.936V22.1H221.586V25.65H216.936V44.15C216.936 45.2833 217.119 46.1 217.486 46.6C217.853 47.0667 218.553 47.3 219.586 47.3C219.853 47.3 220.153 47.2833 220.486 47.25C220.853 47.2167 221.203 47.1833 221.536 47.15V51.1C220.869 51.2 220.253 51.2667 219.686 51.3C219.119 51.3667 218.503 51.4 217.836 51.4ZM233.467 51.4C231.333 51.4 229.65 50.9667 228.417 50.1C227.183 49.2333 226.3 48 225.767 46.4C225.267 44.8 225.017 42.9167 225.017 40.75V32.35C225.017 30.1833 225.267 28.3 225.767 26.7C226.3 25.1 227.183 23.8667 228.417 23C229.65 22.1333 231.333 21.7 233.467 21.7C235.6 21.7 237.267 22.1333 238.467 23C239.7 23.8667 240.567 25.1 241.067 26.7C241.6 28.3 241.867 30.1833 241.867 32.35V40.75C241.867 42.9167 241.6 44.8 241.067 46.4C240.567 48 239.7 49.2333 238.467 50.1C237.267 50.9667 235.6 51.4 233.467 51.4ZM233.467 47.45C234.5 47.45 235.217 47.15 235.617 46.55C236.05 45.95 236.3 45.1667 236.367 44.2C236.467 43.2 236.517 42.1667 236.517 41.1V32.05C236.517 30.95 236.467 29.9167 236.367 28.95C236.3 27.9833 236.05 27.2 235.617 26.6C235.217 25.9667 234.5 25.65 233.467 25.65C232.433 25.65 231.7 25.9667 231.267 26.6C230.833 27.2 230.567 27.9833 230.467 28.95C230.4 29.9167 230.367 30.95 230.367 32.05V41.1C230.367 42.1667 230.4 43.2 230.467 44.2C230.567 45.1667 230.833 45.95 231.267 46.55C231.7 47.15 232.433 47.45 233.467 47.45ZM258.633 51V10.5H264.283V46.95H274.633V51H258.633ZM283.256 51.4C282.122 51.4 281.122 51.0833 280.256 50.45C279.389 49.7833 278.706 48.95 278.206 47.95C277.706 46.9167 277.456 45.8333 277.456 44.7C277.456 42.9 277.756 41.3833 278.356 40.15C278.956 38.9167 279.772 37.8833 280.806 37.05C281.872 36.1833 283.089 35.4333 284.456 34.8C285.856 34.1667 287.322 33.55 288.856 32.95V30.9C288.856 29.7333 288.789 28.7667 288.656 28C288.522 27.2333 288.239 26.6667 287.806 26.3C287.406 25.9 286.789 25.7 285.956 25.7C285.222 25.7 284.622 25.8667 284.156 26.2C283.722 26.5333 283.406 27.0167 283.206 27.65C283.006 28.25 282.906 28.9667 282.906 29.8V31.25L277.606 31.05C277.672 27.85 278.406 25.5 279.806 24C281.206 22.4667 283.372 21.7 286.306 21.7C289.172 21.7 291.206 22.4833 292.406 24.05C293.606 25.6167 294.206 27.8833 294.206 30.85V44.05C294.206 44.95 294.222 45.8167 294.256 46.65C294.322 47.4833 294.389 48.2667 294.456 49C294.556 49.7 294.639 50.3667 294.706 51H289.806C289.706 50.4667 289.572 49.8 289.406 49C289.272 48.1667 289.172 47.4167 289.106 46.75C288.772 47.8833 288.122 48.95 287.156 49.95C286.222 50.9167 284.922 51.4 283.256 51.4ZM285.356 46.8C285.889 46.8 286.389 46.65 286.856 46.35C287.322 46.05 287.739 45.7167 288.106 45.35C288.472 44.95 288.722 44.6333 288.856 44.4V36.2C288.022 36.6667 287.239 37.1333 286.506 37.6C285.772 38.0667 285.122 38.5667 284.556 39.1C284.022 39.6 283.589 40.1833 283.256 40.85C282.956 41.4833 282.806 42.2167 282.806 43.05C282.806 44.2167 283.022 45.1333 283.456 45.8C283.889 46.4667 284.522 46.8 285.356 46.8ZM309.695 51.4C308.662 51.4 307.728 51.15 306.895 50.65C306.095 50.1167 305.395 49.5333 304.795 48.9V51H299.445V10.5H304.795V24.4C305.428 23.6667 306.178 23.0333 307.045 22.5C307.945 21.9667 309.012 21.7 310.245 21.7C311.745 21.7 312.928 22.1 313.795 22.9C314.695 23.6667 315.362 24.65 315.795 25.85C316.228 27.0167 316.512 28.2167 316.645 29.45C316.778 30.65 316.845 31.6833 316.845 32.55V39.55C316.845 41.5833 316.645 43.5167 316.245 45.35C315.845 47.15 315.128 48.6167 314.095 49.75C313.062 50.85 311.595 51.4 309.695 51.4ZM308.595 47.2C309.528 47.2 310.195 46.8667 310.595 46.2C310.995 45.5 311.245 44.5667 311.345 43.4C311.445 42.2333 311.495 40.95 311.495 39.55V32.55C311.495 31.35 311.428 30.25 311.295 29.25C311.162 28.2167 310.878 27.4 310.445 26.8C310.012 26.2 309.328 25.9 308.395 25.9C307.695 25.9 307.028 26.05 306.395 26.35C305.795 26.65 305.262 26.9833 304.795 27.35V45.9C305.262 46.2667 305.812 46.5833 306.445 46.85C307.112 47.0833 307.828 47.2 308.595 47.2ZM321.858 51V22.1H327.208V26.2C328.275 24.4333 329.341 23.25 330.408 22.65C331.475 22.05 332.541 21.75 333.608 21.75C333.741 21.75 333.858 21.75 333.958 21.75C334.091 21.75 334.258 21.7667 334.458 21.8V27.7C334.058 27.5333 333.591 27.4 333.058 27.3C332.558 27.1667 332.041 27.1 331.508 27.1C330.675 27.1 329.908 27.3 329.208 27.7C328.541 28.0667 327.875 28.8 327.208 29.9V51H321.858ZM342.973 51.4C341.839 51.4 340.839 51.0833 339.973 50.45C339.106 49.7833 338.423 48.95 337.923 47.95C337.423 46.9167 337.173 45.8333 337.173 44.7C337.173 42.9 337.473 41.3833 338.073 40.15C338.673 38.9167 339.489 37.8833 340.523 37.05C341.589 36.1833 342.806 35.4333 344.173 34.8C345.573 34.1667 347.039 33.55 348.573 32.95V30.9C348.573 29.7333 348.506 28.7667 348.373 28C348.239 27.2333 347.956 26.6667 347.523 26.3C347.123 25.9 346.506 25.7 345.673 25.7C344.939 25.7 344.339 25.8667 343.873 26.2C343.439 26.5333 343.123 27.0167 342.923 27.65C342.723 28.25 342.623 28.9667 342.623 29.8V31.25L337.323 31.05C337.389 27.85 338.123 25.5 339.523 24C340.923 22.4667 343.089 21.7 346.023 21.7C348.889 21.7 350.923 22.4833 352.123 24.05C353.323 25.6167 353.923 27.8833 353.923 30.85V44.05C353.923 44.95 353.939 45.8167 353.973 46.65C354.039 47.4833 354.106 48.2667 354.173 49C354.273 49.7 354.356 50.3667 354.423 51H349.523C349.423 50.4667 349.289 49.8 349.123 49C348.989 48.1667 348.889 47.4167 348.823 46.75C348.489 47.8833 347.839 48.95 346.873 49.95C345.939 50.9167 344.639 51.4 342.973 51.4ZM345.073 46.8C345.606 46.8 346.106 46.65 346.573 46.35C347.039 46.05 347.456 45.7167 347.823 45.35C348.189 44.95 348.439 44.6333 348.573 44.4V36.2C347.739 36.6667 346.956 37.1333 346.223 37.6C345.489 38.0667 344.839 38.5667 344.273 39.1C343.739 39.6 343.306 40.1833 342.973 40.85C342.673 41.4833 342.523 42.2167 342.523 43.05C342.523 44.2167 342.739 45.1333 343.173 45.8C343.606 46.4667 344.239 46.8 345.073 46.8ZM365.762 51.4C363.328 51.4 361.512 50.5167 360.312 48.75C359.112 46.95 358.512 43.9167 358.512 39.65V34.05C358.512 31.85 358.695 29.8167 359.062 27.95C359.428 26.05 360.112 24.5333 361.112 23.4C362.145 22.2667 363.645 21.7 365.612 21.7C366.578 21.7 367.462 21.9167 368.262 22.35C369.062 22.7833 369.778 23.3167 370.412 23.95V10.5H375.762V51H370.412V49.15C369.778 49.8167 369.078 50.3667 368.312 50.8C367.578 51.2 366.728 51.4 365.762 51.4ZM367.112 47.2C367.612 47.2 368.145 47.1167 368.712 46.95C369.278 46.75 369.845 46.4667 370.412 46.1V27.15C369.945 26.8167 369.428 26.5333 368.862 26.3C368.295 26.0333 367.678 25.9 367.012 25.9C365.778 25.9 364.945 26.5 364.512 27.7C364.078 28.8667 363.862 30.2833 363.862 31.95V40.1C363.862 41.4333 363.928 42.65 364.062 43.75C364.228 44.8167 364.545 45.6667 365.012 46.3C365.478 46.9 366.178 47.2 367.112 47.2ZM389.131 51.4C386.997 51.4 385.314 50.9667 384.081 50.1C382.847 49.2333 381.964 48 381.431 46.4C380.931 44.8 380.681 42.9167 380.681 40.75V32.35C380.681 30.1833 380.931 28.3 381.431 26.7C381.964 25.1 382.847 23.8667 384.081 23C385.314 22.1333 386.997 21.7 389.131 21.7C391.264 21.7 392.931 22.1333 394.131 23C395.364 23.8667 396.231 25.1 396.731 26.7C397.264 28.3 397.531 30.1833 397.531 32.35V40.75C397.531 42.9167 397.264 44.8 396.731 46.4C396.231 48 395.364 49.2333 394.131 50.1C392.931 50.9667 391.264 51.4 389.131 51.4ZM389.131 47.45C390.164 47.45 390.881 47.15 391.281 46.55C391.714 45.95 391.964 45.1667 392.031 44.2C392.131 43.2 392.181 42.1667 392.181 41.1V32.05C392.181 30.95 392.131 29.9167 392.031 28.95C391.964 27.9833 391.714 27.2 391.281 26.6C390.881 25.9667 390.164 25.65 389.131 25.65C388.097 25.65 387.364 25.9667 386.931 26.6C386.497 27.2 386.231 27.9833 386.131 28.95C386.064 29.9167 386.031 30.95 386.031 32.05V41.1C386.031 42.1667 386.064 43.2 386.131 44.2C386.231 45.1667 386.497 45.95 386.931 46.55C387.364 47.15 388.097 47.45 389.131 47.45ZM402.571 51V22.1H407.921V26.2C408.988 24.4333 410.054 23.25 411.121 22.65C412.188 22.05 413.254 21.75 414.321 21.75C414.454 21.75 414.571 21.75 414.671 21.75C414.804 21.75 414.971 21.7667 415.171 21.8V27.7C414.771 27.5333 414.304 27.4 413.771 27.3C413.271 27.1667 412.754 27.1 412.221 27.1C411.388 27.1 410.621 27.3 409.921 27.7C409.254 28.0667 408.588 28.8 407.921 29.9V51H402.571ZM425.185 51.4C422.819 51.4 420.919 50.6667 419.485 49.2C418.052 47.7 417.235 45.7333 417.035 43.3L421.485 41.95C421.752 43.7833 422.202 45.1667 422.835 46.1C423.469 47 424.402 47.45 425.635 47.45C426.602 47.45 427.335 47.1833 427.835 46.65C428.335 46.0833 428.585 45.3333 428.585 44.4C428.585 43.5667 428.402 42.8167 428.035 42.15C427.669 41.4833 427.069 40.8 426.235 40.1L421.285 35.85C420.285 34.9833 419.435 34.0167 418.735 32.95C418.069 31.8833 417.735 30.5 417.735 28.8C417.735 27.2667 418.035 25.9833 418.635 24.95C419.269 23.8833 420.135 23.0833 421.235 22.55C422.369 21.9833 423.685 21.7 425.185 21.7C427.485 21.7 429.235 22.45 430.435 23.95C431.669 25.4167 432.369 27.2 432.535 29.3L428.935 30.65C428.802 29.65 428.602 28.7833 428.335 28.05C428.069 27.2833 427.702 26.7 427.235 26.3C426.769 25.8667 426.152 25.65 425.385 25.65C424.519 25.65 423.819 25.95 423.285 26.55C422.785 27.1167 422.535 27.8 422.535 28.6C422.535 29.1 422.635 29.6 422.835 30.1C423.069 30.5667 423.452 31.0333 423.985 31.5L429.085 36.2C429.785 36.8333 430.435 37.5167 431.035 38.25C431.669 38.9833 432.185 39.8167 432.585 40.75C432.985 41.6833 433.185 42.7667 433.185 44C433.185 45.6333 432.852 47 432.185 48.1C431.519 49.2 430.585 50.0333 429.385 50.6C428.185 51.1333 426.785 51.4 425.185 51.4Z" fill="white"/>
<path d="M29.1527 21.1388C29.2902 20.9748 29.3941 20.7852 29.4583 20.5809C29.5225 20.3767 29.5458 20.1618 29.527 19.9486C29.5082 19.7353 29.4475 19.5279 29.3484 19.3381C29.2494 19.1483 29.114 18.9798 28.9498 18.8424C28.3544 18.3417 27.6553 17.9792 26.903 17.7811C26.1507 17.583 25.3638 17.5541 24.5989 17.6966C23.8337 17.8366 23.109 18.1443 22.4768 18.5975C21.8446 19.0508 21.3206 19.6384 20.9424 20.3182C20.7318 20.6958 20.6798 21.1416 20.7978 21.5575C20.9159 21.9734 21.1943 22.3254 21.5719 22.536C21.9495 22.7466 22.3953 22.7986 22.8112 22.6806C23.2271 22.5625 23.5791 22.2841 23.7897 21.9065C23.9348 21.6462 24.1356 21.4212 24.3777 21.2475C24.6198 21.0738 24.8972 20.9557 25.1903 20.9017C25.4833 20.8477 25.7847 20.859 26.0728 20.935C26.3609 21.0109 26.6287 21.1495 26.8571 21.3409C27.1883 21.6185 27.6163 21.7531 28.0467 21.7152C28.4772 21.6773 28.8751 21.47 29.1527 21.1388ZM44.4496 18.8432C44.1182 19.1208 43.9106 19.5187 43.8725 19.9494C43.8345 20.3801 43.9691 20.8082 44.2467 21.1397C44.5243 21.4711 44.9222 21.6787 45.3529 21.7167C45.7836 21.7548 46.2117 21.6202 46.5431 21.3426C46.7714 21.151 47.0391 21.0123 47.3272 20.9364C47.6153 20.8605 47.9167 20.8492 48.2097 20.9033C48.8045 21.0133 49.3155 21.3792 49.6105 21.9081C49.7148 22.0951 49.8549 22.2597 50.0228 22.3925C50.1907 22.5253 50.3831 22.6238 50.589 22.6822C50.795 22.7407 51.0104 22.758 51.2231 22.7332C51.4357 22.7084 51.6414 22.6419 51.8283 22.5377C52.0153 22.4334 52.1799 22.2933 52.3127 22.1254C52.4455 21.9575 52.5439 21.7651 52.6024 21.5591C52.6609 21.3532 52.6782 21.1377 52.6534 20.9251C52.6286 20.7125 52.5621 20.5068 52.4578 20.3198C52.0798 19.6399 51.5558 19.0522 50.9236 18.5989C50.2914 18.1457 49.5666 17.8381 48.8013 17.6982C48.0364 17.5553 47.2493 17.5839 46.4968 17.7818C45.7443 17.9798 45.0451 18.3423 44.4496 18.8432Z" fill="white"/>
<path d="M31.4776 10.8774C31.2803 10.7944 31.0686 10.7512 30.8545 10.7501C30.6404 10.7489 30.4283 10.79 30.2301 10.8709C30.0319 10.9518 29.8516 11.0709 29.6994 11.2215C29.5473 11.3721 29.4263 11.5512 29.3434 11.7485C29.2604 11.9458 29.2172 12.1576 29.2161 12.3716C29.215 12.5857 29.256 12.7979 29.3369 12.9961C29.4178 13.1943 29.5369 13.3746 29.6875 13.5267C29.8381 13.6789 30.0172 13.7998 30.2145 13.8828C30.7833 14.1216 31.4173 16.2298 31.212 17.7357C31.0685 18.7845 30.0336 21.3287 29.3939 22.7377L26.4211 27.9483C26.28 28.1962 26.2065 28.4767 26.2076 28.7618C26.2088 29.047 26.2847 29.3268 26.4277 29.5735C26.5708 29.8202 26.776 30.0251 27.0229 30.1677C27.2698 30.3104 27.5498 30.3858 27.8349 30.3866C28.1227 30.3868 28.4054 30.3109 28.6543 30.1665C28.9033 30.022 29.1095 29.8143 29.2521 29.5643L32.2616 24.2893C32.2852 24.247 32.308 24.2038 32.3284 24.1598C32.5175 23.7466 34.184 20.0656 34.4415 18.1774C34.6868 16.3821 34.2793 12.0541 31.4776 10.8774ZM44.0054 22.7377C43.6874 22.03 43.3855 21.3151 43.1001 20.5937C43.0246 20.3904 42.9093 20.2043 42.761 20.0461C42.6126 19.888 42.4343 19.761 42.2363 19.6727C42.0383 19.5843 41.8246 19.5364 41.6079 19.5316C41.3911 19.5269 41.1756 19.5654 40.9739 19.645C40.7722 19.7246 40.5884 19.8436 40.4333 19.9951C40.2782 20.1466 40.1549 20.3275 40.0706 20.5273C39.9863 20.727 39.9427 20.9416 39.9423 21.1584C39.942 21.3752 39.9849 21.5899 40.0685 21.79C40.5681 23.058 41.0505 24.1141 41.0709 24.1581C41.0913 24.2021 41.1133 24.2453 41.1377 24.2877L44.4634 30.1152C44.6777 30.4906 45.0324 30.7655 45.4493 30.8795C45.8663 30.9934 46.3115 30.937 46.6869 30.7227C47.0623 30.5084 47.3373 30.1538 47.4512 29.7368C47.5651 29.3198 47.5087 28.8746 47.2945 28.4992L44.0054 22.7377ZM40.6072 19.1064C41.0389 19.0857 41.4447 18.8944 41.7354 18.5746C42.0261 18.2547 42.1778 17.8325 42.1572 17.4008C42.0773 15.7302 42.7211 14.0767 43.184 13.8828C43.5825 13.7153 43.8982 13.3963 44.0616 12.9961C44.225 12.5958 44.2226 12.1471 44.0551 11.7485C43.8876 11.35 43.5687 11.0343 43.1684 10.8709C42.7682 10.7075 42.3194 10.7099 41.9209 10.8774C39.331 11.9653 38.8136 15.7221 38.9008 17.5565C38.9207 17.9745 39.1007 18.3689 39.4035 18.6578C39.7064 18.9467 40.1088 19.1079 40.5273 19.1081C40.5542 19.1081 40.5803 19.1081 40.6072 19.1064Z" fill="white"/>
<path d="M67.0474 10.9662C65.4762 10.2539 63.6948 9.44635 61.6232 7.64048C60.5581 6.71228 59.9437 5.94952 59.4009 5.27639C58.5363 4.20395 57.7198 3.19019 55.7998 2.40379C53.276 1.37129 49.9984 1.26372 48.1762 2.15361C48.0385 2.22044 47.9163 2.29215 47.8022 2.36549C44.7372 0.769059 41.0383 -0.0271178 36.7347 0.00792387V0.00710861H36.716L36.7095 0.00629336L36.7013 0.00710861H36.6956C36.5473 0.00873846 36.4088 -0.00267075 36.2588 0.000588938V0.012813C32.0448 -0.0189689 28.4095 0.741353 25.3829 2.27015C25.3136 2.23021 25.2468 2.18947 25.1694 2.15198C23.3456 1.2629 20.0679 1.36966 17.5458 2.40298C15.6266 3.18856 14.8093 4.20233 13.9446 5.27476C13.4019 5.94789 12.7874 6.71065 11.7223 7.63885C9.65081 9.44471 7.86939 10.2523 6.29822 10.9645C4.19572 11.9172 2.20976 12.8177 0.8904 15.6047C0.231557 17.0092 -0.0696732 18.5548 0.0135441 20.1039C0.220534 24.0774 2.37926 26.915 4.68141 29.3899C5.19726 29.9449 5.61531 30.3849 5.96247 30.75C7.2859 32.1435 7.39429 32.2576 7.98837 33.4719C8.68186 34.889 8.93938 36.2353 9.12681 37.2189C9.35662 38.4225 9.61739 39.7867 10.9938 40.0939C11.116 40.1216 11.2595 40.1404 11.4192 40.1404C11.7924 40.1404 12.2545 40.0352 12.7516 39.6783C14.2078 38.6344 15.59 35.6184 15.9404 32.7564C17.3331 37.9083 19.6246 43.5003 21.6962 45.0071L21.7312 44.959C23.0636 47.526 25.5353 49.3042 27.7461 50.018C28.0061 50.1036 28.2726 50.1623 28.5407 50.2103L28.5073 50.2332C28.9794 50.9006 29.5575 51.4864 30.2186 51.9673V53.5132C30.2186 57.0899 33.1246 60 36.6972 60C40.2747 60 43.184 57.0899 43.184 53.5132V51.9665C43.8734 51.4572 44.4602 50.8664 44.9027 50.2226L44.8505 50.1867C45.1178 50.1525 45.3819 50.1003 45.6386 50.018C48.0002 49.2585 50.6495 47.2929 51.9037 44.4513C53.9206 42.2885 56.0402 36.7739 57.2764 31.895C57.3123 32.1248 57.3571 32.353 57.3824 32.5852C57.6978 35.4969 59.1084 38.6124 60.5932 39.6775C61.0903 40.0336 61.5515 40.1395 61.9248 40.1395C62.0845 40.1395 62.2287 40.1208 62.3518 40.0931C63.7274 39.7859 63.9881 38.4217 64.2179 37.2181C64.4054 36.2344 64.6629 34.8882 65.3564 33.471C65.9505 32.2568 66.0589 32.1435 67.3823 30.7492C67.7286 30.3841 68.1475 29.9441 68.6633 29.3891C70.9655 26.9142 73.1242 24.0766 73.3312 20.1031C73.3883 19.016 73.2823 17.3527 72.4544 15.6031C71.1358 12.8193 69.1507 11.9188 67.0474 10.9662ZM12.7231 32.2373C12.6148 33.2127 12.373 34.1686 12.0043 35.0781C11.7512 34.0298 11.3868 33.0116 10.9172 32.0409C10.1031 30.3768 9.72741 29.9816 8.32737 28.5074C7.98755 28.1488 7.57602 27.7161 7.06995 27.1717C4.42716 24.3309 3.3971 22.3702 3.26997 19.936C3.23982 19.3525 3.27242 18.1953 3.83797 17.0007C4.64556 15.295 5.71147 14.8118 7.64528 13.9349C9.33299 13.1697 11.433 12.2179 13.8656 10.0975C15.1458 8.98102 15.8874 8.06098 16.4831 7.32184C17.2524 6.36757 17.6379 5.8884 18.7812 5.42063C19.7787 5.01236 20.7916 4.85182 21.6554 4.82004C21.4957 4.96428 21.3221 5.09303 21.1681 5.24379C17.1872 9.13179 15.0138 15.15 14.6895 23.1427C14.4874 24.132 14.2347 25.1148 13.965 26.1539C13.4728 28.051 12.9635 30.0133 12.7231 32.2373ZM36.698 56.7428C35.8436 56.7406 35.0249 56.3997 34.4214 55.7947C33.818 55.1897 33.4791 54.3701 33.4791 53.5157V49.2251C34.0361 48.9109 34.5681 48.5546 35.0707 48.1592L35.0723 51.0962C35.0724 51.3102 35.1147 51.5221 35.1967 51.7198C35.2787 51.9175 35.3988 52.0971 35.5502 52.2484C35.7016 52.3997 35.8814 52.5196 36.0792 52.6014C36.2769 52.6833 36.4889 52.7253 36.7029 52.7252C36.917 52.7251 37.1289 52.6828 37.3266 52.6008C37.5243 52.5188 37.7039 52.3987 37.8552 52.2472C38.0064 52.0958 38.1264 51.9161 38.2082 51.7183C38.29 51.5205 38.3321 51.3086 38.332 51.0945L38.3303 48.0973C38.8447 48.4347 39.3771 48.7437 39.9251 49.023V53.5149C39.9243 54.3705 39.584 55.1909 38.979 55.7961C38.3741 56.4012 37.5537 56.7417 36.698 56.7428ZM52.2965 36.8399C51.6543 34.7831 50.4629 33.1516 49.3505 31.6342L49.2731 31.5283C49.1482 31.3517 48.9893 31.2017 48.8058 31.0872C48.6224 30.9726 48.4179 30.8957 48.2044 30.861C47.9909 30.8262 47.7726 30.8343 47.5623 30.8848C47.3519 30.9353 47.1537 31.0271 46.9792 31.155C46.8048 31.2828 46.6575 31.4442 46.546 31.6295C46.4345 31.8149 46.361 32.0206 46.3298 32.2347C46.2986 32.4487 46.3103 32.6668 46.3643 32.8763C46.4183 33.0858 46.5134 33.2824 46.6442 33.4547L46.7224 33.5607C48.6391 36.1758 50.1532 38.2424 49.2478 42.1809C48.6921 44.5964 46.4714 46.3297 44.6427 46.9173C43.7756 47.1951 41.8174 46.5114 39.9911 45.2899C39.7891 45.1563 39.5596 45.0699 39.3197 45.0372L39.4875 44.8588C39.3115 44.6893 39.142 44.5271 38.9872 44.3657C38.7595 44.1301 38.5397 43.8871 38.3279 43.6372V41.5249C38.8283 41.2324 40.3546 39.5707 41.4849 38.2995C42.4506 37.2123 42.8646 35.7088 42.4693 34.3096C42.4186 34.1193 42.3478 33.9349 42.2583 33.7595C41.0823 31.569 32.3178 31.569 31.1419 33.7595C31.0588 33.9144 30.9895 34.1026 30.9309 34.3096C30.5356 35.7096 30.9496 37.2123 31.9153 38.2995C33.0423 39.5683 34.5646 41.2258 35.069 41.5233V43.6413C34.9052 43.8352 34.6811 44.0887 34.4049 44.3722C33.669 45.1424 32.5199 46.174 31.221 46.7168L31.2161 46.7184C30.7426 46.9156 30.2936 47.0273 29.9538 47.046H29.9521C29.9122 47.046 29.8723 47.0476 29.8332 47.0501C29.4698 47.0783 29.1045 47.0342 28.7583 46.9205C26.9288 46.3297 24.7065 44.5947 24.1499 42.1826C23.2453 38.244 24.7611 36.1782 26.6794 33.5631L27.1089 32.9748C27.3597 32.6246 27.4617 32.1894 27.3927 31.7642C27.3236 31.3391 27.089 30.9586 26.7402 30.7058C26.3915 30.4531 25.9568 30.3487 25.5313 30.4155C25.1058 30.4822 24.724 30.7147 24.4693 31.0621L24.0513 31.635C22.8305 33.2991 21.5177 35.1017 20.935 37.4503C19.3744 33.4922 17.8994 28.1757 17.9051 25.1947C17.919 17.083 19.7844 11.1544 23.4491 7.57529C26.21 4.87871 30.1241 3.45341 35.0617 3.28798L35.0438 5.5119C35.0424 5.72594 35.0831 5.93815 35.1638 6.13643C35.2444 6.3347 35.3633 6.51516 35.5136 6.66749C35.664 6.81982 35.8429 6.94104 36.0401 7.02423C36.2373 7.10742 36.449 7.15095 36.663 7.15234H36.6744C37.1048 7.15214 37.5176 6.98181 37.8229 6.67849C38.1282 6.37516 38.3012 5.96345 38.3043 5.53309L38.3189 3.28309C38.8641 3.30754 39.3881 3.35888 39.9072 3.41593L39.8942 4.55356C39.8918 4.76759 39.9316 4.98 40.0114 5.17865C40.0911 5.3773 40.2092 5.5583 40.3588 5.71131C40.5085 5.86432 40.6869 5.98635 40.8837 6.07043C41.0806 6.15451 41.292 6.19899 41.5061 6.20133H41.524C41.9531 6.20114 42.3649 6.03182 42.67 5.73008C42.9751 5.42833 43.1489 5.01849 43.1539 4.58941L43.1604 4.03445C45.7013 4.73854 47.8486 5.90877 49.5494 7.56958C53.2149 11.1495 55.0802 17.0773 55.0941 25.189C55.0973 28.0208 53.7674 32.9601 52.2965 36.8399ZM70.0772 19.936C69.9501 22.3694 68.9209 24.3309 66.2773 27.1709C65.7704 27.7153 65.3596 28.148 65.0198 28.5065C63.6198 29.9807 63.2433 30.3768 62.43 32.04C61.9603 33.0108 61.5959 34.029 61.3429 35.0773C60.9743 34.1677 60.7325 33.2118 60.6241 32.2364C60.3935 30.1103 59.8019 28.223 59.229 26.3983C58.8655 25.2403 58.5241 24.1451 58.3024 23.0718C57.9683 15.1117 55.7966 9.11467 51.8263 5.23646C51.6698 5.08407 51.4954 4.9545 51.334 4.80863C52.2639 4.80374 53.4284 4.95368 54.566 5.419C55.7094 5.88758 56.0948 6.36676 56.8641 7.32022C57.4598 8.05935 58.2014 8.97939 59.4816 10.0958C61.9142 12.2171 64.015 13.1689 65.7019 13.9333C67.6357 14.8102 68.7016 15.2934 69.5092 16.999C70.0748 18.1953 70.1074 19.3525 70.0772 19.936Z" fill="white"/>
</svg>
